SplineFontDB: 3.2
FontName: MonikaMiletic
FullName: MonikaMiletic
FamilyName: MonikaMiletic
Weight: Regular
Copyright: Copyright (c) 2023, matea
UComments: "2023-3-17: Created with FontForge (http://fontforge.org)"
Version: 001.000
ItalicAngle: 0
UnderlinePosition: -100
UnderlineWidth: 50
Ascent: 800
Descent: 200
InvalidEm: 0
LayerCount: 2
Layer: 0 0 "Stra+AX4A-nji" 1
Layer: 1 0 "Prednji" 0
XUID: [1021 390 1568658415 1100]
OS2Version: 0
OS2_WeightWidthSlopeOnly: 0
OS2_UseTypoMetrics: 1
CreationTime: 1679049957
ModificationTime: 1679309096
OS2TypoAscent: 0
OS2TypoAOffset: 1
OS2TypoDescent: 0
OS2TypoDOffset: 1
OS2TypoLinegap: 0
OS2WinAscent: 0
OS2WinAOffset: 1
OS2WinDescent: 0
OS2WinDOffset: 1
HheadAscent: 0
HheadAOffset: 1
HheadDescent: 0
HheadDOffset: 1
OS2Vendor: 'PfEd'
MarkAttachClasses: 1
DEI: 91125
Encoding: iso8859-2
UnicodeInterp: none
NameList: AGL For New Fonts
DisplaySize: -48
AntiAlias: 1
FitToEm: 0
WinInfo: 27 27 9
BeginPrivate: 0
EndPrivate
BeginChars: 256 21

StartChar: A
Encoding: 65 65 0
Width: 664
Flags: HW
LayerCount: 2
Fore
SplineSet
263 497 m 1
 401 407 l 1
 401 569 l 1
 281 657 l 1
 263 497 l 1
21 0 m 1
 217 783 l 1
 457 681 l 1
 639 0 l 1
 462 0 l 1
 391 291 l 25
 246 387 l 1
 246 387 180 3 180 0 c 0
 180 -3 21 0 21 0 c 1
EndSplineSet
Validated: 33
EndChar

StartChar: j
Encoding: 106 106 1
Width: 460
Flags: HW
LayerCount: 2
Fore
SplineSet
248 453 m 1
 413 441 l 1
 410 507 l 1
 251 504 l 1
 248 453 l 1
254 378 m 25
 419 378 l 1
 419 378 395 -3 395 0 c 8
 395 3 380 -204 380 -204 c 1
 116 -198 l 25
 116 -198 62 -3 62 0 c 0
 62 3 179 -3 179 0 c 0
 179 3 188 -105 188 -105 c 1
 278 -111 l 1
 254 378 l 25
EndSplineSet
Validated: 41
EndChar

StartChar: dcroat
Encoding: 240 273 2
Width: 522
Flags: HW
LayerCount: 2
Fore
SplineSet
227 226 m 0
 203 226 151.55859375 176.086914062 155 152 c 0
 159 124 227 86 255 86 c 0
 281 86 326.459314834 140.919967453 323 166 c 0
 319 195 256 226 227 226 c 0
320 531 m 0
 329.262695312 558.327148438 365.679466845 608.687249637 376 566 c 0
 385.867770569 525.185443301 414 502 500 472 c 0
 543.155216484 456.945854715 404 406 404 406 c 1
 404 406 479.993584963 51.3314207607 342 12 c 0
 218.192382812 -23.2880859375 58.1502043541 38.9315775635 76 212 c 0
 93.0984969378 377.783964689 329.183691644 237.907240118 312 362 c 0
 308.338804782 388.439476944 292.221691118 433.41636305 232 446 c 0
 165 460 306.82421875 492.130859375 320 531 c 0
EndSplineSet
Validated: 524321
EndChar

StartChar: M
Encoding: 77 77 3
Width: 788
Flags: HW
LayerCount: 2
Fore
SplineSet
24 0 m 9
 24 0 -37.4163383692 435.448942596 45 693 c 0
 69 768 209 752 266 698 c 24
 356 612 265.275308575 323.777547279 368 395 c 0
 443 447 383.910025603 622.205380003 480 708 c 0
 536 758 644 769 672 699 c 24
 774 444 762 -3 762 0 c 8
 762 3 576 -6 576 0 c 8
 576 6 683 327 555 444 c 24
 465 527 484 173 363 195 c 24
 220 221 215.77132334 650.511921688 171 513 c 0
 115 341 222 0 222 0 c 25
 24 0 l 9
EndSplineSet
Validated: 524321
EndChar

StartChar: o
Encoding: 111 111 4
Width: 556
Flags: HW
LayerCount: 2
Fore
SplineSet
263 297 m 28
 330 291 403 265 404 198 c 28
 405 134 329 105 266 111 c 28
 203 117 147 158 146 222 c 28
 145 276 209 302 263 297 c 28
245 441 m 28
 131 446 21 369 20 255 c 28
 19 123 110 6 242 0 c 28
 387 -7 532 86 533 231 c 28
 534 370 384 434 245 441 c 28
EndSplineSet
Validated: 41
EndChar

StartChar: n
Encoding: 110 110 5
Width: 592
Flags: HW
LayerCount: 2
Fore
SplineSet
50 0 m 1
 50 0 39 468 242 468 c 24
 443 468 563 0 554 0 c 0
 545 0 395 0 395 0 c 1
 395 0 349 312 248 312 c 24
 147 312 233 6 233 0 c 0
 233 -6 50 0 50 0 c 1
EndSplineSet
Validated: 33
EndChar

StartChar: i
Encoding: 105 105 6
Width: 206
Flags: HW
LayerCount: 2
Fore
SplineSet
98 500 m 24
 79 501 54 493 56 474 c 24
 59 449 81 435 106 434 c 24
 128 433 151 449 148 470 c 24
 145 493 121 499 98 500 c 24
65 0 m 1
 61.9560546875 -0.32421875 -67.6708984375 378.447265625 112 398 c 0
 208.96875 408.552734375 158.97265625 1.482421875 176 0 c 0
 181.977539062 -0.5205078125 65 0 65 0 c 1
EndSplineSet
Validated: 524329
EndChar

StartChar: k
Encoding: 107 107 7
Width: 501
Flags: HW
LayerCount: 2
Fore
SplineSet
2 10 m 0
 142.473632812 322.024414062 29.1680586835 317.217573335 15 537 c 0
 3.50506789823 715.315472015 200.136203894 680.446695371 160 539 c 0
 132.752240005 442.974336545 156.030431182 232.32388212 212 312 c 0
 254.526069736 372.538471474 218.555664062 452.609375 303 467 c 0
 486.603515625 498.290039062 272.012695312 287.36328125 264 255 c 0
 223.744140625 92.404296875 528.058030708 27.549532012 478 18 c 0
 153 -44 209.604492188 130.454101562 138 164 c 0
 89.9970703125 186.48828125 168.390625 19.2626953125 150 10 c 0
 148.251953125 9.119140625 -7.9365234375 -12.0703125 2 10 c 0
EndSplineSet
Validated: 524321
EndChar

StartChar: a
Encoding: 97 97 8
Width: 530
Flags: HW
LayerCount: 2
Fore
SplineSet
250 297 m 24
 317 291 390 265 391 198 c 24
 392 134 316 105 253 111 c 24
 190 117 134 158 133 222 c 24
 132 276 196 302 250 297 c 24
232 441 m 24
 118 446 8 369 7 255 c 24
 6 123 97 6 229 0 c 16
 270.52734375 -2.0048828125 311.897460938 13.142578125 353 42.73046875 c 0
 427 96 450.282226562 -50 511 18 c 24
 516.282226562 24 519.946289062 223.526367188 520 231 c 0
 521 370 371 434 232 441 c 24
EndSplineSet
Validated: 524329
EndChar

StartChar: l
Encoding: 108 108 9
Width: 284
Flags: HW
LayerCount: 2
Fore
SplineSet
89 0 m 1
 119.988201523 1.3343688927 16.9288375991 653.361209145 113 724 c 0
 289.612827844 853.859120018 183.608398438 99.869140625 239 -2 c 0
 241.866210938 -7.271484375 89 0 89 0 c 1
EndSplineSet
Validated: 524321
EndChar

StartChar: e
Encoding: 101 101 10
Width: 431
Flags: HW
LayerCount: 2
Fore
SplineSet
224 371 m 0
 165 371 124.118164062 364.815429688 114 307 c 0
 107 267 169 251 210 251 c 0
 269 251 308 240 318 299 c 0
 328 358 284 371 224 371 c 0
398 3 m 0
 249.064453125 -1.6875 188.5 10.0556640625 97 0 c 0
 -16.8984375 -12.5166015625 -39.197265625 343.404296875 103 426 c 0
 159 458.528320312 300 464.1640625 360 415 c 0
 404.37109375 378.642578125 424 239 348 187 c 0
 248.962890625 119.237304688 246 155 142 173 c 0
 78.9296875 183.916015625 106.076171875 68.4736328125 167 88 c 0
 323 138 270.9375 116.456054688 384 75 c 0
 444 53 431.717773438 4.0615234375 398 3 c 0
EndSplineSet
Validated: 524321
EndChar

StartChar: t
Encoding: 116 116 11
Width: 436
Flags: HW
LayerCount: 2
Fore
SplineSet
181 703 m 0
 140.814453125 704.057617188 165.375 547.578125 135 521 c 0
 103 493 4.083984375 507.283203125 3 465 c 0
 1 387 144.48828125 460.234375 163 421 c 0
 230 279 117.743164062 -8.3583984375 275 -2 c 0
 402.90625 3.171875 230.635742188 259.959960938 289 406 c 0
 311.673828125 462.735351562 441.258789062 448.0625 427 507 c 0
 412 569 323.897460938 507.758789062 265 533 c 0
 230 548 257 701 181 703 c 0
EndSplineSet
Validated: 524329
EndChar

StartChar: cacute
Encoding: 230 263 12
Width: 456
Flags: HW
LayerCount: 2
Fore
SplineSet
376 483 m 0
 309.713867188 468.204101562 292.55859375 494.948242188 334 537 c 0
 353.18359375 556.466796875 421.080078125 583.208007812 422 547 c 0
 422.637695312 521.922851562 398.814453125 488.091796875 376 483 c 0
386 447 m 0
 195.723632812 498.33203125 18.6851331735 388.255891119 8 249 c 0
 -4.40234375 87.3642578125 227.999906216 -16.9992363162 399 4 c 0
 508.598632812 17.458984375 147.728515625 129.009765625 152 239 c 0
 156 342 505.283183201 414.820238645 386 447 c 0
EndSplineSet
Validated: 524329
EndChar

StartChar: ccaron
Encoding: 232 269 13
Width: 447
Flags: HW
LayerCount: 2
Fore
SplineSet
322 554 m 0
 270.163085938 533.006835938 317.752934862 466.693614909 352 466 c 0
 376.446289062 465.504882812 420.355440087 500.739248612 410 533 c 0
 399.078125 567.025390625 380.030273438 516.778320312 359 514 c 0
 329.19921875 510.063476562 342.509765625 562.305664062 322 554 c 0
383 430 m 0
 192.723632812 481.33203125 22.6851331735 384.255891119 12 245 c 0
 -0.40234375 83.3642578125 231.999906216 -20.9992363163 403 0 c 0
 512.598632812 13.458984375 154.728534559 116.00976489 159 226 c 0
 163 329 502.283203125 397.8203125 383 430 c 0
EndSplineSet
Validated: 524329
EndChar

StartChar: scaron
Encoding: 185 353 14
Width: 368
Flags: HW
LayerCount: 2
Fore
SplineSet
36 564 m 4
 -16.951171875 521.51171875 43.3984742054 474.721863174 77 468 c 4
 110.698242188 461.258789062 153.452148438 501.693359375 143 534 c 4
 132 568 102.008789062 520.060546875 81 523 c 4
 60 525.938476562 57.7352912716 581.440504825 36 564 c 4
297 497 m 4
 193 502 39.01953125 452 38 348 c 4
 37 246 193 273 197 171 c 28
 202 64 -54 0 53 0 c 4
 200 0 308.633981653 19.0623425147 344 162 c 4
 368 259 221.375 256.150390625 192 329 c 4
 167 391 363.990234375 493.779296875 297 497 c 4
EndSplineSet
Validated: 524329
EndChar

StartChar: zcaron
Encoding: 190 382 15
Width: 582
Flags: HW
LayerCount: 2
Fore
SplineSet
150 558 m 4
 99.4443359375 534.0859375 200.11328125 485 234 480 c 4
 267.998046875 474.983398438 334.452148438 519.693359375 324 552 c 4
 313 586 237 534 216 537 c 4
 195 540 174.9375 569.795898438 150 558 c 4
24 366 m 4
 -34.8193359375 284.08203125 349.5625 402.921875 333 312 c 4
 301.326171875 138.118164062 -60.4365234375 153.298828125 39 57 c 4
 100.928710938 -2.974609375 363.65625 -16.978515625 477 15 c 4
 755.0625 93.4521484375 287.950195312 62.3369140625 324 129 c 4
 380.970703125 234.350585938 646.247070312 329.884765625 453 420 c 4
 349.853515625 468.099609375 99.1484375 470.659179688 24 366 c 4
EndSplineSet
Validated: 524329
EndChar

StartChar: Dcroat
Encoding: 208 272 16
Width: 676
Flags: HW
LayerCount: 2
Fore
SplineSet
296 153 m 0
 239 135 262.063476562 254.970703125 287 309 c 0
 305 348 437 336 374 399 c 0
 338.153320312 434.846679688 274.516601562 399.651367188 245 441 c 0
 219.0546875 477.345703125 211.26171875 551.053710938 224 564 c 0
 309.903320312 651.307617188 487.479492188 527.026367188 494 405 c 0
 501 274 422.060546875 192.80859375 296 153 c 0
167 771 m 0
 75 777 170.866210938 553.662109375 137 468 c 0
 120 425 32 471 14 387 c 0
 -4.0986328125 302.540039062 141.264648438 330.081054688 155 285 c 0
 194 157 101 0 167 0 c 0
 176 0 658.303710938 131.002929688 656 366 c 0
 654 570 371.045898438 757.692382812 167 771 c 0
EndSplineSet
Validated: 524329
EndChar

StartChar: Zcaron
Encoding: 174 381 17
Width: 582
Flags: HW
LayerCount: 2
Fore
SplineSet
95 759 m 0
 44.4443359375 735.0859375 154.113306446 650.000170759 188 645 c 0
 221.998046875 639.983398438 267.706778013 664.38747204 290 690 c 0
 452.355236654 876.528804168 193.05168828 684.502937536 176 696 c 0
 158.410757291 707.859507329 119.937443002 770.796018935 95 759 c 0
13 453 m 0
 -23.2842330595 363.459142689 438.052734375 661.896484375 317 345 c 0
 253.14453125 177.836914062 -36.7486127156 175.262864389 39 57 c 0
 85.4979689229 -15.595164399 363.656282611 -16.9786312108 477 15 c 0
 755.0625 93.4521484375 325.613730791 112.252202798 365 177 c 4
 423.380453483 272.972678768 598.474105942 374.216457283 548 474 c 4
 406.10768669 754.510520043 85.9999972471 633.146630811 13 453 c 0
EndSplineSet
Validated: 524329
EndChar

StartChar: Scaron
Encoding: 169 352 18
Width: 368
Flags: HW
LayerCount: 2
Fore
SplineSet
38 759 m 0
 -14.951171875 716.51171875 52.8202638808 651.435735234 86 660 c 0
 118.211914063 668.314453125 194.607456734 756.247084412 185 780 c 0
 171.600585938 813.127929688 107.008789062 711.060546875 86 714 c 0
 65 716.938476562 59.7352912716 776.440504825 38 759 c 0
323 766 m 0
 219 771 21.0196078358 580.999999249 20 477 c 0
 19 375 182.235351562 323.966796875 187 222 c 0
 192 115 -54 0 53 0 c 0
 200 0 291.634007261 61.0624460126 327 204 c 0
 351 301 182.375 365.150390625 153 438 c 4
 128 500 389.990235276 762.779315612 323 766 c 0
EndSplineSet
Validated: 524329
EndChar

StartChar: Cacute
Encoding: 198 262 19
Width: 456
Flags: HW
LayerCount: 2
Fore
SplineSet
387 695 m 0
 355.3828125 705.262695312 301.89163615 719.734322308 348 750 c 0
 375.688476562 768.174804688 436.527259495 791.342774855 436 760 c 0
 435.549804688 733.23828125 410.866210938 687.252929688 387 695 c 0
391 671 m 0
 258.828125 742.370117188 20.5703125 561.4921875 15 424 c 0
 8.4375 262.021484375 240.999906216 -20.9992363163 412 0 c 0
 521.598632812 13.458984375 134.728515625 299.009765625 139 409 c 0
 143 512 499.711129429 612.298206998 391 671 c 0
EndSplineSet
Validated: 524329
EndChar

StartChar: Ccaron
Encoding: 200 268 20
Width: 456
Flags: HW
LayerCount: 2
Fore
SplineSet
306 787 m 0
 255.444335937 763.0859375 341.11328125 701 375 696 c 0
 408.998046875 690.983398438 440.760371503 729.118188563 443 763 c 0
 447.893554687 837.03125 411.13671875 751.790039062 387 738 c 0
 368.581054688 727.4765625 330.937443002 798.796018935 306 787 c 0
393 668 m 0
 273.443359375 732.875 14.4760797851 542.064468776 10 404 c 0
 4.7470703125 241.973632812 240.999906216 -20.9992363163 412 0 c 0
 521.598632812 13.458984375 126.728515625 288.009765625 131 398 c 4
 135 501 501.590898258 609.075338955 393 668 c 0
EndSplineSet
Validated: 524329
EndChar
